# xmcd
#
# Track frame offsets:
# 150
# 14662
# 28158
# 40656
# 54751
# 68031
# 82227
# 94682
# 107963
# 121783
# 135865
# 154540
# 167329
# 180169
# 194226
# 206443
# 221171
# 238584
# 252494
# 265818
# 279158
# 293524
# 307625
#
# Disc length: 4235 seconds
#
#
# Revision: 0
# Processed by: cddbd v1.5.2PL0 Copyright (c) Steve Scherf et al.
# Submitted via: FreeRIP 2.945 
#
DISCID=33108917
DTITLE=Steinbeck-J1939 - Grapes-Wrath05
DYEAR=1939
DGENRE=National Folk
TTITLE0=GW 0501
TTITLE1=GW 0502
TTITLE2=GW 0503
TTITLE3=GW 0504
TTITLE4=GW 0505
TTITLE5=GW 0506
TTITLE6=GW 0507
TTITLE7=GW 0508
TTITLE8=GW 0509
TTITLE9=GW 0510
TTITLE10=GW 0511
TTITLE11=GW 0512
TTITLE12=GW 0513
TTITLE13=GW 0514
TTITLE14=GW 0515
TTITLE15=GW 0516
TTITLE16=GW 0517
TTITLE17=GW 0518
TTITLE18=GW 0519
TTITLE19=GW 0520
TTITLE20=GW 0521
TTITLE21=GW 0522
TTITLE22=GW 0523
EXTD=The Grapes of Wrath by John Steinbeck\nread by Dylan Baker recorded books 18 CDs\nnational folk
EXTT0=
EXTT1=
EXTT2=
EXTT3=
EXTT4=
EXTT5=
EXTT6=
EXTT7=
EXTT8=
EXTT9=
EXTT10=
EXTT11=
EXTT12=
EXTT13=
EXTT14=
EXTT15=
EXTT16=
EXTT17=
EXTT18=
EXTT19=
EXTT20=
EXTT21=
EXTT22=
PLAYORDER=
